<?xml version="1.0" standalone="no"?>
<!DOCTYPE svg PUBLIC "-//W3C//DTD SVG 20010904//EN"
 "http://www.w3.org/TR/2001/REC-SVG-20010904/DTD/svg10.dtd">
<svg version="1.0" xmlns="http://www.w3.org/2000/svg"
 width="1007.000000pt" height="1007.000000pt" viewBox="0 0 1007.000000 1007.000000"
 preserveAspectRatio="xMidYMid meet">
<metadata>
Created by potrace 1.11, written by Peter Selinger 2001-2013
</metadata>
<g transform="translate(0.000000,1007.000000) scale(0.100000,-0.100000)"
fill="#000000" stroke="none">
<path d="M3452 9304 c-7 -8 -18 -11 -24 -8 -6 4 -8 3 -5 -3 4 -6 -1 -14 -10
-17 -9 -4 -20 -1 -25 6 -6 10 -8 9 -8 -4 0 -13 -9 -16 -45 -13 -41 3 -44 1
-33 -14 12 -15 11 -15 -7 -1 -17 13 -40 16 -103 11 -7 -1 -10 -6 -7 -11 4 -6
11 -7 17 -4 6 4 8 2 4 -4 -3 -6 -15 -9 -25 -7 -15 3 -18 -1 -14 -18 3 -13 1
-18 -4 -12 -4 6 -30 10 -58 10 -50 0 -73 -14 -59 -37 4 -6 3 -8 -4 -4 -5 3
-13 0 -16 -6 -3 -7 -3 -2 0 12 4 18 3 21 -4 11 -6 -8 -15 -10 -23 -5 -12 6
-12 5 0 -9 15 -18 13 -19 -38 -19 -25 0 -31 -2 -20 -9 12 -7 11 -9 -3 -9 -9 0
-19 -6 -21 -12 -4 -10 -6 -10 -6 -1 -1 7 -8 10 -16 7 -8 -4 -13 -10 -10 -14 3
-5 0 -12 -6 -16 -7 -4 -9 -3 -6 2 3 6 2 16 -4 24 -7 13 -9 12 -9 -2 0 -11 -8
-18 -20 -18 -11 0 -20 -5 -20 -11 0 -5 5 -7 12 -3 7 4 8 3 4 -4 -4 -7 -12 -12
-17 -12 -16 0 -39 -27 -31 -36 4 -5 -2 -2 -12 6 -23 18 -19 18 -39 2 -9 -8
-21 -11 -26 -8 -6 4 -8 -2 -6 -14 4 -23 -10 -36 -21 -19 -5 8 -3 9 6 4 9 -5
11 -4 6 4 -13 20 -38 -7 -26 -28 7 -14 4 -17 -21 -15 -16 1 -29 -2 -29 -7 0
-5 5 -9 12 -9 6 0 8 -3 5 -6 -4 -4 -13 -1 -22 6 -9 7 -18 10 -22 6 -3 -3 -1
-6 6 -6 7 0 9 -5 6 -10 -4 -6 -11 -7 -17 -4 -6 4 -8 2 -4 -4 3 -6 -7 -17 -24
-26 -17 -8 -28 -10 -25 -5 4 5 -1 9 -10 9 -10 0 -13 -5 -9 -12 5 -8 0 -7 -11
2 -11 9 -16 10 -11 3 5 -9 1 -13 -11 -13 -15 0 -16 -2 -3 -11 12 -9 10 -10 -8
-6 -19 5 -21 3 -11 -9 10 -12 9 -13 -7 -7 -17 6 -17 5 -6 -10 12 -14 11 -16
-7 -12 -14 2 -21 -1 -21 -11 0 -8 -6 -14 -13 -14 -9 0 -14 -12 -15 -31 -1 -39
-29 -82 -48 -75 -8 3 -14 1 -14 -4 0 -6 5 -10 11 -10 5 0 8 -4 4 -10 -3 -5
-12 -7 -20 -3 -8 3 -15 0 -15 -6 0 -6 5 -11 12 -11 6 0 8 -3 5 -6 -4 -4 -13
-1 -22 6 -13 11 -14 10 -9 -4 4 -11 2 -16 -7 -14 -8 2 -13 -7 -13 -22 -1 -18
-7 -26 -24 -28 -12 -2 -20 -7 -17 -12 3 -5 13 -6 23 -3 13 4 13 2 -3 -10 -15
-11 -22 -12 -27 -4 -6 9 -8 9 -8 0 0 -6 7 -19 16 -27 14 -14 12 -15 -14 -12
-19 2 -29 -1 -29 -11 0 -8 6 -12 13 -9 8 3 16 0 20 -6 4 -6 3 -9 -2 -6 -5 3
-19 2 -31 -3 -19 -7 -23 -16 -23 -48 0 -29 -4 -39 -13 -35 -10 3 -13 -6 -11
-35 1 -30 -3 -42 -15 -46 -13 -4 -17 -15 -15 -44 1 -26 -4 -42 -12 -45 -8 -3
-14 -13 -14 -21 0 -10 5 -14 13 -10 6 4 4 0 -6 -8 -14 -11 -15 -16 -5 -20 9
-4 8 -6 -4 -6 -9 -1 -19 5 -22 12 -3 6 -4 3 -3 -8 1 -11 9 -26 17 -33 13 -11
13 -11 -1 -7 -13 5 -15 -4 -14 -57 0 -46 4 -62 14 -60 7 1 10 -2 6 -8 -3 -6
-10 -8 -14 -6 -4 3 -8 -17 -8 -45 -1 -43 2 -49 15 -45 15 5 15 4 0 -7 -10 -8
-15 -17 -11 -20 3 -4 1 -7 -6 -7 -9 0 -9 -4 1 -14 7 -8 17 -11 22 -8 5 3 6 0
2 -7 -4 -6 -11 -9 -15 -7 -4 3 -7 -23 -7 -57 1 -34 -2 -72 -6 -83 -4 -12 -2
-26 5 -33 9 -9 8 -11 -5 -6 -10 4 -18 3 -19 -1 0 -5 -2 -17 -4 -27 -3 -14 1
-17 13 -13 15 6 15 5 0 -7 -16 -13 -16 -15 0 -32 16 -18 16 -18 0 -6 -16 12
-18 11 -19 -5 -1 -11 -1 -26 0 -34 2 -13 1 -13 -8 0 -5 8 -7 18 -4 24 3 5 1 6
-6 2 -6 -4 -8 -12 -5 -18 5 -7 1 -9 -9 -5 -11 4 -14 2 -11 -7 3 -8 0 -17 -7
-22 -8 -4 -10 -3 -5 4 5 9 -58 11 -237 11 l-245 0 5 -22 c4 -18 3 -19 -6 -7
-8 12 -11 12 -11 1 0 -10 -4 -11 -13 -3 -13 11 -52 -9 -40 -21 3 -4 1 -7 -5
-7 -7 0 -12 5 -12 11 0 8 -4 8 -12 2 -7 -6 -26 -9 -43 -9 -18 1 -33 -5 -37
-14 -5 -12 -7 -12 -7 3 -1 9 -5 17 -11 17 -5 0 -6 -7 -3 -17 4 -11 3 -14 -5
-9 -6 4 -21 -3 -32 -14 -11 -11 -25 -18 -30 -15 -6 4 -10 -1 -10 -9 0 -9 -5
-16 -11 -16 -5 0 -7 -6 -3 -12 6 -10 5 -10 -7 -1 -23 19 -42 -3 -27 -31 11
-21 11 -21 -11 -2 -21 19 -21 19 -15 1 5 -13 4 -16 -4 -11 -8 4 -12 0 -12 -11
0 -10 -5 -25 -11 -33 -9 -13 -10 -12 -5 3 3 9 1 17 -4 17 -6 0 -10 -7 -10 -15
0 -8 -5 -15 -11 -15 -5 0 -7 -6 -3 -12 5 -9 2 -8 -9 1 -15 12 -17 12 -11 -4 5
-13 4 -16 -4 -11 -7 4 -12 1 -12 -9 0 -12 -5 -15 -16 -11 -14 5 -15 4 -4 -9
11 -13 10 -14 -4 -9 -12 5 -16 0 -16 -17 0 -20 -2 -21 -11 -9 -9 12 -10 10 -6
-8 5 -19 3 -21 -9 -11 -11 9 -14 8 -15 -7 -1 -11 -1 -23 0 -27 1 -5 -3 -6 -9
-2 -6 3 -7 12 -4 18 5 9 4 9 -6 0 -7 -6 -13 -23 -13 -37 1 -22 -2 -24 -14 -14
-11 9 -13 8 -11 -3 2 -8 10 -20 18 -27 8 -7 11 -12 5 -11 -25 3 -45 -2 -45
-12 0 -5 4 -8 8 -5 5 3 9 -1 9 -9 0 -8 -4 -12 -9 -9 -4 3 -9 0 -9 -5 -4 -29
-20 -62 -28 -57 -3 2 -7 -7 -7 -20 -1 -15 2 -22 10 -18 6 2 1 -3 -11 -12 -13
-9 -23 -22 -23 -28 0 -6 5 -4 10 4 6 9 10 10 10 3 0 -6 -5 -15 -11 -19 -8 -4
-7 -9 2 -15 10 -6 11 -9 2 -9 -7 0 -13 -5 -13 -11 0 -5 4 -7 10 -4 5 3 10 1
10 -4 0 -6 -4 -11 -9 -11 -10 0 -9 -26 2 -36 10 -11 8 -24 -4 -24 -5 0 -7 5
-3 12 4 7 3 8 -5 4 -6 -4 -9 -11 -6 -16 3 -5 1 -11 -5 -15 -15 -9 -12 -37 3
-30 6 4 5 1 -3 -7 -18 -16 -26 -63 -8 -52 7 4 8 3 4 -5 -10 -16 -13 -111 -3
-111 4 0 4 -8 -1 -17 -9 -20 -8 -55 2 -72 4 -6 4 -11 -1 -11 -10 0 -9 -152 1
-168 4 -7 4 -12 -1 -12 -4 0 -8 -36 -8 -80 0 -44 4 -80 9 -80 5 0 3 -7 -4 -15
-11 -13 -10 -18 6 -31 10 -9 14 -13 8 -10 -7 3 -14 -3 -17 -14 -3 -12 1 -20
12 -23 14 -4 13 -5 -2 -6 -15 -1 -16 -5 -7 -21 6 -11 7 -20 2 -20 -5 0 -7 -11
-4 -25 2 -14 9 -22 16 -19 6 3 2 -2 -8 -10 -18 -14 -15 -21 6 -17 5 0 7 -2 7
-7 -3 -19 2 -33 10 -27 5 3 13 0 17 -6 4 -7 3 -9 -4 -5 -6 3 -13 2 -17 -4 -3
-5 0 -10 7 -10 10 0 10 -2 -1 -9 -7 -5 -10 -14 -7 -20 4 -6 12 -8 18 -5 7 4 8
2 4 -5 -4 -6 -10 -9 -14 -7 -14 9 -6 -59 8 -72 13 -10 13 -11 -2 -6 -12 4 -16
1 -13 -13 1 -10 8 -17 14 -15 8 1 8 -4 -1 -17 -7 -11 -17 -19 -22 -18 -6 1
-11 -10 -10 -26 1 -23 -1 -25 -14 -15 -13 10 -14 10 -8 1 4 -7 2 -13 -3 -13
-6 0 -11 -5 -11 -11 0 -5 5 -7 12 -3 7 5 8 3 4 -5 -5 -7 -14 -10 -22 -7 -7 3
-18 -3 -23 -12 -7 -11 -11 -12 -11 -4 0 7 -5 10 -10 7 -6 -4 -7 -11 -4 -17 5
-7 1 -9 -9 -5 -10 3 -17 2 -17 -3 0 -5 -7 -7 -15 -4 -8 4 -16 1 -16 -5 -3 -26
-4 -30 -13 -38 -5 -4 -6 -3 -2 4 3 6 2 14 -4 18 -5 3 -10 -1 -10 -9 0 -9 -6
-16 -14 -16 -7 0 -20 -8 -27 -17 -13 -16 -12 -17 4 -4 15 12 17 12 11 -3 -3
-9 -13 -16 -21 -16 -8 0 -11 -5 -7 -12 5 -8 2 -9 -9 -5 -9 3 -19 1 -23 -5 -4
-7 -3 -8 4 -4 8 5 10 2 6 -8 -3 -9 -10 -13 -15 -10 -5 3 -17 0 -26 -6 -17 -11
-17 -11 1 -6 15 5 17 4 7 -8 -9 -11 -9 -15 1 -20 7 -3 2 -3 -11 0 -15 4 -21 2
-17 -4 9 -16 -4 -41 -19 -36 -8 3 -17 -4 -21 -18 -9 -23 -10 -29 -14 -58 -1
-11 -4 -9 -10 5 -7 16 -9 13 -9 -15 -1 -20 -7 -42 -13 -49 -10 -11 -10 -13 0
-7 6 4 12 2 12 -3 0 -6 -7 -11 -15 -11 -13 0 -14 -4 -4 -22 11 -20 10 -21 -3
-11 -12 10 -15 10 -15 -2 0 -8 4 -15 9 -15 5 0 6 -5 3 -10 -4 -6 -11 -7 -17
-4 -7 4 -8 2 -4 -4 4 -7 3 -12 -3 -12 -11 0 -9 -19 3 -39 6 -10 5 -12 -2 -7
-8 5 -12 -2 -12 -19 0 -18 4 -24 13 -19 9 6 9 4 -1 -8 -7 -9 -12 -20 -11 -24
4 -22 -2 -45 -10 -40 -4 3 -14 -7 -20 -22 l-13 -27 24 20 23 20 -20 -24 c-11
-13 -18 -25 -17 -28 2 -3 0 -8 -4 -11 -4 -4 -4 -1 0 6 4 6 3 12 -2 12 -13 0
-21 -49 -10 -56 6 -4 5 -10 -3 -15 -12 -7 -12 -9 0 -9 11 0 11 -3 0 -17 -12
-14 -12 -16 1 -9 8 4 5 -1 -8 -10 -22 -16 -22 -18 -5 -38 17 -20 17 -20 0 -7
-16 13 -17 9 -16 -69 1 -60 -2 -85 -12 -91 -11 -7 -10 -9 5 -9 15 0 16 -3 6
-15 -6 -8 -9 -18 -6 -23 3 -6 -2 -9 -12 -8 -11 1 -16 -6 -15 -19 1 -11 -4 -24
-10 -28 -8 -6 -5 -7 7 -3 17 6 17 5 5 -11 -8 -9 -9 -14 -2 -10 8 5 11 0 10
-13 -1 -11 -7 -20 -15 -20 -7 0 -10 5 -6 12 4 7 3 8 -5 4 -14 -9 -5 -26 14
-26 8 0 13 -9 12 -20 -1 -11 -5 -20 -10 -20 -5 0 -3 -8 4 -17 10 -11 10 -14 2
-9 -10 5 -11 1 -4 -17 6 -16 6 -28 -2 -36 -6 -6 -8 -14 -4 -18 4 -3 14 2 23
13 14 18 14 17 2 -6 -7 -14 -12 -32 -13 -41 0 -9 -7 -24 -15 -35 -14 -18 -14
-18 3 -5 19 15 24 2 5 -17 -16 -16 4 -16 22 0 8 7 6 3 -4 -9 -11 -13 -15 -23
-11 -23 4 0 0 -10 -11 -22 -15 -19 -16 -20 -1 -9 20 15 23 2 5 -18 -10 -11
-10 -13 0 -7 7 5 12 1 12 -9 0 -9 -4 -14 -9 -11 -11 7 -9 -13 2 -32 5 -7 14
-9 20 -5 8 5 8 2 -1 -9 -10 -12 -10 -18 2 -27 8 -7 12 -22 9 -34 -4 -18 -3
-19 6 -7 14 20 14 4 0 -22 -10 -18 -9 -20 5 -15 8 3 18 2 21 -3 4 -6 -1 -10
-9 -10 -9 0 -16 -5 -16 -11 0 -5 5 -7 10 -4 9 6 15 -16 11 -39 -1 -5 5 -6 14
-2 9 3 13 2 10 -4 -3 -6 1 -13 9 -16 9 -3 16 -15 16 -25 0 -12 7 -19 19 -19
16 0 19 -5 15 -25 -2 -14 -1 -24 3 -23 15 3 43 -14 37 -23 -3 -5 9 -9 26 -9
22 0 31 -4 27 -12 -4 -13 0 -13 79 -9 14 0 22 5 19 11 -4 6 8 10 27 11 28 0
30 2 13 10 -17 8 -16 9 7 6 16 -2 25 0 22 5 -4 5 4 9 17 8 37 -3 45 0 29 10
-9 6 -10 10 -3 10 6 0 15 -4 18 -10 3 -5 12 -10 18 -10 7 0 6 4 -3 10 -12 8
-12 10 3 16 9 3 15 9 12 14 -2 4 9 7 25 8 25 1 30 -3 30 -22 0 -12 6 -28 13
-35 10 -11 9 -13 0 -7 -8 5 -13 1 -13 -9 0 -10 5 -13 12 -9 10 6 10 4 0 -8 -9
-11 -10 -18 -2 -23 5 -3 10 -12 10 -18 0 -7 -4 -6 -10 3 -7 11 -9 8 -8 -15 1
-16 6 -36 11 -42 6 -9 4 -15 -7 -19 -9 -3 -13 -11 -10 -16 4 -6 1 -14 -5 -18
-19 -11 -20 -177 -2 -204 13 -19 13 -20 0 -9 -13 10 -15 7 -14 -25 0 -20 5
-43 9 -51 5 -8 5 -12 0 -8 -5 3 -8 -48 -7 -121 1 -80 5 -128 12 -130 6 -2 11
-10 11 -18 0 -8 8 -14 18 -14 13 0 14 -2 3 -9 -9 -6 -10 -10 -2 -12 16 -6 23
-49 8 -49 -7 0 -6 -4 3 -10 13 -9 13 -11 0 -20 -8 -5 -10 -10 -4 -10 7 0 14
-9 17 -20 3 -11 1 -17 -4 -14 -10 6 -6 -27 6 -58 5 -11 3 -18 -5 -18 -9 0 -10
-3 -1 -13 6 -8 8 -17 4 -20 -3 -4 5 -7 18 -7 14 0 19 -3 13 -8 -6 -4 -13 -21
-16 -39 -3 -26 0 -33 16 -37 16 -5 18 -8 8 -15 -11 -6 -10 -10 4 -15 16 -6 16
-8 4 -16 -12 -8 -10 -10 8 -10 24 0 30 -15 10 -24 -7 -3 -3 -3 10 0 17 4 22 1
22 -15 0 -15 4 -19 17 -14 10 4 14 2 10 -4 -10 -17 3 -43 22 -43 14 0 14 -2 1
-10 -8 -5 -12 -10 -7 -11 4 -1 12 -3 17 -4 6 -1 16 -3 23 -4 6 -2 3 -6 -8 -11
-11 -5 -14 -9 -7 -11 6 -1 17 -3 22 -4 6 -1 15 -3 20 -4 6 0 9 -4 9 -9 -3 -20
3 -30 27 -40 16 -8 22 -17 18 -25 -4 -6 3 -3 16 8 l23 20 -11 -21 c-13 -24 -7
-34 19 -34 10 0 21 -5 25 -11 4 -8 -1 -9 -17 -5 -20 6 -21 5 -7 -4 10 -6 24
-10 30 -9 26 3 38 -1 36 -13 -2 -7 2 -12 9 -13 6 0 15 -4 20 -9 4 -5 3 -6 -4
-2 -6 3 -14 3 -17 -2 -8 -13 28 -11 36 2 4 6 8 0 8 -14 0 -14 4 -20 8 -14 8
13 44 15 36 2 -3 -5 -10 -5 -16 -2 -6 4 -8 2 -4 -4 3 -6 16 -9 27 -7 15 3 19
0 15 -10 -3 -9 0 -12 8 -9 8 3 17 0 21 -6 5 -8 10 -8 20 0 10 8 15 8 20 0 5
-8 11 -8 21 1 11 9 14 9 14 0 0 -7 4 -9 10 -6 5 3 10 -1 10 -9 0 -19 21 -21
39 -3 11 10 13 10 7 0 -4 -8 -1 -13 8 -13 9 0 16 6 16 13 0 9 3 8 9 -2 5 -7
20 -13 35 -13 14 0 26 -6 26 -12 0 -6 9 -12 20 -12 11 0 20 3 20 7 0 4 7 10
16 13 13 5 14 3 6 -6 -8 -10 24 -13 164 -13 96 0 174 3 174 6 0 4 7 10 16 13
13 5 14 3 6 -7 -9 -10 4 -12 64 -11 71 2 75 0 90 -25 14 -23 15 -24 11 -3 -3
13 -1 20 5 16 5 -4 8 -24 6 -45 -2 -22 1 -39 7 -39 5 0 3 -5 -5 -10 -14 -9
-13 -11 9 -14 5 0 13 -5 18 -9 4 -5 3 -8 -2 -7 -34 7 -46 -28 -15 -42 12 -5
11 -7 -4 -7 -20 -1 -20 -1 0 -17 10 -8 14 -13 7 -10 -18 10 -21 -27 -4 -48 9
-11 11 -16 5 -13 -7 4 -15 0 -18 -9 -4 -11 -2 -15 7 -11 9 3 14 -5 15 -27 2
-17 7 -32 12 -34 6 -2 10 -8 10 -13 0 -6 -5 -7 -12 -3 -7 4 -8 3 -4 -5 5 -8
12 -9 20 -2 9 8 12 -3 11 -45 -1 -48 6 -67 18 -46 2 4 2 2 1 -5 -2 -7 2 -18 9
-26 22 -23 38 -57 27 -57 -12 0 -9 -22 5 -32 6 -5 4 -8 -5 -8 -13 0 -13 -1 0
-10 13 -9 13 -11 0 -20 -13 -8 -13 -10 2 -10 21 0 28 -28 25 -90 -1 -35 1 -44
13 -42 10 1 9 -2 -4 -13 -19 -15 -19 -15 5 -16 22 0 23 -1 4 -9 -18 -8 -18 -9
5 -9 14 -1 32 -6 40 -11 12 -8 12 -10 -5 -10 -18 -1 -19 -1 -2 -11 9 -5 21 -8
26 -4 5 3 13 0 17 -6 4 -8 3 -9 -4 -5 -7 4 -12 1 -12 -8 0 -8 5 -18 12 -22 7
-4 8 -3 4 4 -4 7 -1 12 8 12 10 0 13 -6 9 -17 -4 -10 -2 -14 4 -10 6 4 14 -5
18 -20 5 -21 8 -24 16 -12 7 12 9 11 9 -3 0 -10 7 -18 16 -18 8 0 13 -4 10 -9
-3 -5 3 -11 14 -14 11 -3 20 -13 20 -22 0 -9 4 -13 10 -10 5 3 10 1 10 -5 0
-6 4 -8 10 -5 5 3 10 1 10 -5 0 -8 9 -10 26 -6 16 4 23 3 20 -3 -4 -5 -1 -13
5 -17 7 -4 9 -3 6 3 -11 18 41 21 65 5 22 -15 22 -15 9 2 -13 16 -13 17 5 14
10 -1 18 2 17 8 -1 6 4 11 12 11 7 0 11 -7 8 -16 -3 -12 -2 -12 7 2 6 9 20 17
31 17 11 0 17 5 14 10 -4 6 -11 7 -17 4 -6 -4 -8 -2 -4 4 3 6 15 9 26 7 21 -4
36 25 25 47 -4 7 1 4 9 -6 15 -19 16 -19 16 8 0 18 4 25 12 20 7 -5 9 -2 5 9
-3 9 1 21 11 29 15 12 16 11 3 -4 -9 -12 -10 -18 -2 -18 6 0 12 5 12 10 4 30
20 61 29 55 4 -3 7 8 6 25 -2 25 0 27 13 17 12 -10 13 -9 2 11 -6 12 -7 22 -2
22 5 0 12 -6 15 -12 3 -7 3 2 0 21 -4 30 -3 33 11 21 8 -7 18 -10 22 -6 3 3 1
6 -5 6 -6 0 -10 9 -9 19 1 15 5 17 17 11 14 -7 17 -2 19 36 1 30 -2 44 -11 44
-9 0 -9 3 2 10 13 9 13 10 0 10 -11 0 -15 12 -16 43 -1 23 1 36 3 30 3 -7 9
-13 15 -13 6 0 8 26 6 64 -2 37 1 62 6 58 5 -3 6 3 2 13 -5 14 -4 16 7 6 11
-9 17 -8 27 4 11 13 10 14 -5 9 -14 -6 -13 -2 6 19 23 27 41 39 20 13 -9 -11
-9 -16 0 -22 7 -4 9 -3 5 4 -3 6 -1 14 5 17 5 4 8 13 5 21 -3 8 0 14 6 14 6 0
5 6 -3 17 -8 9 -9 14 -3 10 16 -9 10 119 -7 140 -11 14 -9 14 9 -1 22 -19 22
-19 16 -1 -5 12 -4 16 4 11 8 -4 10 -2 6 7 -3 8 0 18 5 22 6 3 9 10 6 15 -3 5
0 12 6 16 8 4 9 3 5 -4 -4 -7 -2 -12 3 -12 15 0 14 27 -1 33 -12 5 -3 6 52 8
11 0 29 12 40 26 11 14 20 21 20 15 0 -5 7 -13 16 -16 12 -4 15 -2 10 9 -5 13
-3 13 18 0 12 -8 25 -13 28 -9 3 3 62 5 129 5 71 0 118 3 111 8 -11 7 -11 9 2
14 9 4 16 1 16 -6 0 -7 5 -4 10 5 8 12 17 15 38 9 48 -13 250 -5 269 10 16 12
17 12 6 -2 -11 -14 -4 -15 65 -13 60 1 79 -2 90 -15 7 -9 11 -11 8 -4 -5 8 0
8 18 0 13 -7 22 -15 19 -19 -2 -5 -9 -6 -14 -3 -15 10 -10 -2 8 -16 14 -12 16
-12 8 0 -5 10 -4 12 4 7 8 -5 9 -12 3 -19 -15 -18 -4 -108 15 -122 9 -7 13
-17 9 -24 -4 -6 -3 -18 4 -26 7 -9 8 -15 0 -20 -5 -3 -10 -14 -10 -23 0 -15 2
-15 10 -2 5 8 10 10 10 4 0 -5 -5 -15 -12 -22 -9 -9 -9 -12 1 -12 11 0 11 -3
0 -17 -8 -9 -9 -14 -4 -11 6 3 16 0 23 -8 10 -11 10 -14 0 -14 -10 0 -10 -2 0
-9 16 -9 15 -20 -1 -40 -9 -11 -9 -13 0 -8 6 4 14 3 18 -3 3 -5 1 -10 -5 -10
-6 0 -8 -5 -5 -10 4 -6 12 -7 18 -3 7 4 5 -2 -3 -12 -14 -17 -13 -18 10 -12
22 5 23 5 8 -7 -10 -7 -15 -16 -11 -20 4 -3 6 -29 4 -57 -2 -40 1 -49 11 -43
9 5 8 1 -2 -11 -8 -10 -10 -16 -5 -13 6 3 16 0 23 -8 10 -11 10 -14 0 -14 -10
0 -10 -2 1 -9 9 -6 10 -11 2 -15 -16 -10 20 -55 39 -49 13 4 13 3 1 -5 -31
-22 -9 -92 28 -92 6 0 7 -7 4 -17 -5 -12 -3 -14 8 -8 12 7 12 6 1 -7 -10 -12
-10 -18 -1 -23 8 -6 8 -9 0 -14 -8 -5 -5 -15 9 -31 11 -13 20 -30 20 -39 0
-14 2 -14 10 -1 8 12 10 10 10 -8 0 -13 4 -21 8 -18 11 7 42 -30 34 -39 -4 -4
0 -6 8 -4 23 3 51 -12 43 -24 -3 -6 -1 -7 6 -3 6 4 9 11 6 15 -8 14 73 5 92
-10 16 -13 16 -11 -1 16 l-19 30 34 -30 c18 -16 27 -22 19 -12 -12 16 -11 18
14 13 18 -3 29 0 33 10 3 8 12 14 20 14 9 0 11 5 7 13 -6 9 -4 9 8 -1 13 -11
19 -9 35 11 10 13 29 27 41 31 12 4 20 12 17 17 -4 5 -1 9 4 9 6 0 11 -6 12
-12 0 -7 4 -4 8 7 5 11 5 25 0 31 -5 6 -6 14 -2 18 11 11 12 67 2 60 -5 -3 -6
2 -3 11 5 13 9 13 22 3 14 -12 14 -10 2 12 -12 23 -12 24 4 11 15 -13 17 -12
12 13 -3 15 -1 24 5 21 5 -4 9 -14 9 -23 0 -14 2 -14 9 -3 5 8 8 23 6 34 -3
14 -1 16 9 8 15 -13 27 -5 20 14 -4 10 1 12 15 8 13 -3 21 -1 21 6 0 7 -5 9
-12 5 -8 -5 -9 -2 -5 10 4 10 7 21 7 24 0 4 4 1 9 -6 7 -11 9 -11 14 2 4 9 2
16 -3 16 -6 0 -10 5 -10 11 0 5 6 7 13 3 8 -5 8 -2 -2 9 -7 9 -9 17 -4 17 6 0
9 12 7 28 -1 15 -3 27 -4 27 -1 0 -3 8 -5 18 -2 9 1 15 5 12 5 -3 8 4 7 15 -1
11 -6 20 -11 20 -6 0 -5 5 2 12 9 9 8 16 -5 30 -15 16 -15 18 -1 13 12 -5 15
0 13 24 -1 18 3 32 11 35 8 3 14 11 14 18 0 9 -3 8 -10 -2 -6 -9 -10 -10 -10
-3 0 6 4 15 10 18 5 3 10 17 10 30 0 13 5 25 12 27 16 6 19 138 4 157 -9 12
-8 13 3 6 11 -6 13 -4 7 10 -6 16 -4 16 11 4 9 -8 14 -9 10 -2 -4 6 -1 14 5
16 10 4 9 6 -1 6 -11 1 -11 4 -1 16 11 13 10 14 -6 8 -18 -7 -18 -6 -1 11 15
16 21 29 19 47 -1 8 12 10 125 13 68 2 108 8 120 17 16 12 17 12 6 -1 -10 -14
1 -15 92 -15 57 1 102 -2 99 -7 -3 -4 0 -8 6 -8 6 0 9 -4 6 -9 -4 -5 4 -7 16
-3 21 5 21 6 2 13 -12 5 -14 8 -4 8 8 0 24 -6 34 -14 10 -8 23 -12 28 -9 6 4
48 6 94 7 67 0 82 2 74 13 -9 9 -7 12 7 9 25 -4 38 6 22 16 -10 6 -7 9 10 9
21 0 22 2 10 17 -13 15 -12 15 11 3 23 -12 24 -12 11 4 -12 14 -12 16 4 10 14
-6 16 -4 10 7 -8 12 -6 12 8 1 14 -12 16 -11 12 8 -3 16 -1 19 8 13 7 -5 45
-8 86 -8 67 1 74 3 87 25 7 14 13 19 14 11 0 -11 4 -10 16 5 8 10 12 13 8 5
-5 -10 -3 -12 6 -6 10 6 10 11 -4 20 -14 11 -15 13 -1 19 8 3 15 1 15 -5 0 -6
5 -7 11 -4 6 4 8 13 5 20 -3 8 3 19 12 27 10 8 13 8 9 1 -4 -6 -3 -14 2 -17 5
-4 8 5 6 19 -1 14 2 28 7 31 4 3 5 11 1 17 -4 7 2 5 12 -3 15 -12 17 -12 10
-1 -6 11 -4 13 10 7 15 -5 16 -4 5 9 -11 13 -10 14 4 9 12 -5 15 -2 10 10 -4
12 -2 15 9 10 8 -3 18 0 23 7 4 7 3 10 -4 6 -6 -5 -8 0 -5 13 3 11 9 23 14 26
5 3 6 -2 3 -10 -3 -9 -1 -16 5 -16 6 0 10 3 9 8 -6 19 28 72 47 73 19 0 19 1
1 8 -16 6 -17 8 -4 13 9 4 20 2 25 -3 5 -5 8 5 8 26 -1 20 4 36 12 39 7 3 13
11 13 17 0 8 -5 7 -17 -2 -15 -12 -15 -10 1 8 10 12 16 29 12 38 -3 9 -2 14 2
12 4 -2 15 4 24 14 12 13 13 19 5 23 -9 5 -9 7 1 12 6 3 12 12 12 19 0 7 6 16
13 18 10 4 10 6 0 6 -7 1 -13 6 -13 12 0 5 5 7 10 4 14 -9 12 18 -2 34 -10 11
-10 13 0 7 8 -5 12 1 12 18 0 14 -6 26 -12 26 -10 0 -9 3 1 9 7 5 10 14 7 20
-4 6 -1 11 6 11 8 1 5 7 -7 16 -19 15 -19 15 6 11 24 -5 25 -4 24 47 -1 29 -4
57 -8 62 -3 6 -2 16 3 24 5 8 4 22 -2 33 -7 14 -7 17 1 13 12 -8 11 21 -2 41
-4 6 -3 15 3 18 8 5 5 16 -6 33 -17 26 -17 26 1 12 17 -14 17 -13 10 9 -5 18
-4 22 6 17 8 -4 6 -1 -3 6 -15 13 -15 15 0 24 13 9 13 12 2 19 -9 6 -11 4 -5
-5 5 -9 4 -11 -3 -6 -8 5 -9 13 -3 24 6 11 5 24 -1 36 -8 14 -7 17 1 12 12 -8
11 20 -2 41 -4 6 -3 14 3 18 17 10 11 25 -7 19 -15 -5 -16 -4 -3 5 20 12 19
113 -1 138 -13 17 -13 17 5 3 18 -14 19 -13 14 1 -4 9 -1 22 5 29 9 10 8 12
-5 7 -10 -4 -18 -2 -18 3 0 6 4 10 8 10 10 0 9 71 -1 87 -4 6 -3 14 3 18 17
10 11 25 -7 19 -15 -5 -15 -4 -4 4 16 12 23 70 9 78 -5 3 -4 12 3 20 9 11 8
19 -7 37 -16 18 -16 19 -1 8 20 -16 21 -12 7 24 -5 14 -6 24 -2 21 5 -3 8 24
6 59 -1 37 2 65 8 65 5 0 6 5 3 10 -4 6 -12 7 -18 3 -9 -5 -9 -3 0 8 10 12 9
20 -4 40 -16 23 -16 23 1 9 18 -14 18 -13 11 9 -5 18 -4 22 6 17 8 -4 5 0 -5
8 -11 9 -15 16 -10 16 6 0 9 25 9 55 -1 30 1 55 5 55 3 0 15 7 26 16 10 8 13
13 7 9 -7 -3 -13 -2 -13 3 0 13 32 21 72 18 20 -2 38 4 46 13 8 9 11 11 8 4
-4 -7 1 -11 13 -10 11 0 17 5 15 9 -3 4 6 8 20 8 14 0 28 5 32 12 5 7 2 8 -7
3 -10 -6 -11 -5 -3 4 6 7 20 13 31 14 12 0 19 6 16 14 -3 8 2 11 16 8 14 -2
18 1 14 11 -3 9 2 14 14 14 16 0 19 6 18 30 -1 16 1 28 4 26 15 -9 52 15 49
31 -1 10 2 19 7 21 6 1 10 -2 10 -7 0 -5 4 -13 8 -18 5 -4 8 -3 7 2 -5 23 1
35 23 45 22 11 22 11 2 -6 -13 -10 -14 -15 -5 -12 8 2 19 14 25 26 5 12 15 22
22 22 7 0 13 6 13 14 0 16 27 29 41 20 11 -6 51 20 43 29 -3 3 -13 3 -22 0
-14 -4 -15 -3 -2 5 8 6 18 8 22 6 4 -3 8 0 8 7 0 7 8 9 21 6 16 -4 18 -3 9 8
-7 8 -7 15 -1 19 5 3 12 0 15 -6 4 -7 4 -3 2 10 -4 20 -2 21 12 10 13 -11 15
-10 10 10 -6 20 -4 22 10 10 13 -11 14 -11 7 1 -6 11 -4 13 8 8 11 -4 14 -2
11 7 -3 8 0 17 5 21 6 3 9 10 6 15 -3 4 6 7 20 6 22 -3 23 -1 13 18 -10 19
-10 20 5 7 15 -12 17 -11 17 9 0 15 5 20 14 17 9 -4 17 2 21 14 4 10 11 19 17
19 5 0 21 9 35 20 14 11 20 20 13 20 -7 0 -19 -8 -27 -17 -13 -16 -13 -16 -3
5 6 12 18 22 26 22 9 0 12 5 8 13 -5 7 0 6 11 -3 17 -14 18 -13 13 2 -5 11 0
18 14 21 11 3 17 10 13 16 -3 6 1 11 10 11 9 0 13 4 10 10 -3 6 2 10 12 10 15
0 18 8 16 45 0 25 3 42 8 39 5 -3 6 -10 3 -16 -4 -7 -2 -8 4 -4 7 4 12 16 12
27 0 10 5 19 11 19 5 0 7 -5 3 -12 -4 -7 -3 -8 4 -4 7 4 12 16 12 28 0 16 3
18 14 9 11 -9 13 -6 10 19 -4 30 9 41 20 18 3 -7 3 -1 1 15 -2 16 0 25 6 21 5
-3 16 0 24 6 8 7 22 10 30 6 11 -4 14 -2 9 6 -5 7 -3 8 6 3 18 -11 70 -12 70
-2 0 5 5 5 11 1 13 -8 99 -11 99 -4 0 3 8 6 19 6 12 0 17 -5 13 -15 -4 -10 -1
-13 11 -8 9 3 16 3 16 -1 -1 -4 -1 -16 0 -27 1 -17 3 -18 11 -5 6 10 10 11 10
3 0 -7 7 -13 16 -13 9 0 12 5 8 13 -6 9 -5 9 7 0 8 -6 43 -10 84 -9 55 1 69 4
67 16 -3 10 3 9 20 -5 17 -15 19 -16 9 -2 -7 9 -10 17 -5 17 5 1 79 0 164 0
85 -1 166 0 180 1 30 2 84 2 125 0 17 -1 156 -2 310 -2 320 0 306 0 299 -11
-6 -9 -6 -9 49 -13 26 -2 35 0 31 8 -5 8 -2 8 7 0 17 -17 32 -17 23 0 -5 8 -2
8 9 -2 11 -9 17 -10 17 -2 0 6 5 11 11 11 5 0 7 -4 4 -10 -3 -5 1 -10 10 -10
8 0 18 7 21 15 4 8 18 15 33 15 18 0 22 3 13 9 -10 6 -7 10 13 15 14 4 30 4
35 1 6 -4 10 -1 10 5 0 6 5 8 12 4 17 -10 77 -10 71 0 -4 5 0 6 7 1 18 -11 70
-12 70 -2 0 5 5 5 12 1 22 -14 93 -10 106 6 9 11 12 12 10 1 -4 -21 241 -22
246 -1 2 8 5 300 5 648 l1 632 -22 0 c-13 0 -30 5 -38 11 -12 8 -9 9 10 5 l25
-6 -24 12 c-19 10 -25 10 -29 0 -5 -15 -32 10 -32 29 0 7 -7 4 -15 -7 -12 -14
-14 -15 -9 -2 4 13 1 15 -15 11 -12 -3 -21 -1 -21 5 0 5 -7 13 -16 16 -12 5
-14 3 -8 -7 5 -7 2 -6 -6 3 -9 9 -21 15 -28 12 -7 -2 -16 5 -19 17 -3 11 -10
18 -15 15 -5 -3 -18 2 -28 11 -11 10 -24 14 -32 10 -9 -6 -10 -5 -3 3 6 5 19
12 30 15 12 4 9 5 -10 4 -17 -1 -35 1 -40 5 -6 3 -18 4 -28 2 -13 -2 -17 2
-13 12 3 8 1 14 -3 14 -5 0 -12 -6 -14 -12 -3 -8 -6 -5 -6 5 -1 10 -5 16 -10
13 -5 -4 -12 0 -15 6 -5 10 -7 10 -12 1 -3 -7 -11 -13 -17 -13 -8 0 -7 4 1 12
7 7 12 19 12 27 0 10 -3 12 -8 5 -5 -8 -13 -5 -27 8 -20 19 -20 19 0 12 11 -4
17 -4 13 0 -7 8 -31 14 -63 15 -17 1 -17 3 -5 11 11 7 7 10 -17 10 -19 0 -32
5 -30 11 2 12 -20 19 -61 21 -18 0 -20 3 -11 14 14 17 -2 18 -20 2 -11 -10
-13 -10 -7 0 5 8 0 12 -16 13 -21 0 -21 1 -3 8 17 7 15 8 -11 14 -18 3 -35 16
-44 31 -8 15 -22 26 -34 26 -17 0 -18 2 -6 10 11 7 4 10 -27 10 -24 0 -43 5
-43 11 0 5 6 7 13 3 7 -4 9 -3 4 2 -8 9 -12 10 -39 13 -23 2 -38 17 -43 39 -6
34 -15 43 -35 37 -10 -3 -22 0 -26 6 -4 7 -3 9 4 5 6 -3 14 -1 18 5 4 8 3 9
-4 5 -7 -4 -12 -3 -12 3 0 10 -25 9 -36 -2 -4 -4 -13 -2 -21 4 -10 9 -13 8
-13 -2 0 -11 -2 -11 -10 1 -9 13 -10 13 -10 0 0 -9 -3 -11 -8 -5 -13 19 -35
17 -28 -2 5 -16 5 -16 -6 -2 -14 17 -81 20 -95 5 -4 -5 -3 -6 5 -2 6 4 12 2
12 -3 0 -12 -5 -12 -133 -13 -63 0 -85 -3 -81 -11 5 -8 2 -8 -7 1 -16 14 -63
17 -54 2 4 -6 11 -7 17 -4 7 5 8 2 4 -5 -6 -9 -12 -9 -24 2 -19 17 -167 23
-157 6 4 -5 11 -6 17 -3 7 5 8 2 4 -5 -6 -9 -12 -9 -24 2 -22 19 -187 23 -176
4 5 -9 4 -9 -7 1 -7 6 -19 12 -27 12 -8 0 -10 -5 -6 -12 6 -10 4 -10 -7 -2
-20 16 -201 16 -193 1 5 -8 2 -8 -7 1 -16 14 -63 17 -54 2 4 -6 11 -7 17 -4 7
5 8 2 4 -5 -6 -9 -12 -9 -24 2 -20 18 -146 22 -135 4 4 -6 1 -7 -8 -1 -8 5
-87 9 -176 10 -147 1 -162 -1 -151 -15 11 -14 10 -14 -7 0 -25 21 -190 27
-179 6 5 -9 4 -9 -7 1 -7 6 -19 12 -27 12 -8 0 -10 -5 -6 -12 6 -10 4 -10 -7
-2 -20 16 -201 16 -193 1 5 -8 2 -8 -7 1 -16 14 -63 17 -54 2 4 -6 11 -7 17
-4 7 5 8 2 4 -5 -6 -9 -12 -9 -24 2 -20 18 -146 22 -135 4 4 -6 1 -7 -8 -1 -8
5 -81 10 -164 11 -189 1 -235 4 -241 15 -3 4 3 5 13 1 14 -5 16 -3 6 7 -6 7
-9 18 -7 25 3 7 0 16 -7 21 -8 5 -10 3 -4 -6 5 -8 3 -11 -6 -8 -8 3 -13 12
-11 20 1 11 -5 14 -23 13 -14 -2 -23 1 -19 6 3 5 10 7 15 4 5 -4 9 -1 9 4 0 6
-10 11 -22 11 -18 0 -20 2 -9 9 11 7 9 10 -10 13 -13 2 -23 9 -22 16 2 6 -4
12 -12 12 -8 0 -15 7 -15 16 0 8 -4 12 -10 9 -5 -3 -10 0 -10 8 0 8 -9 17 -20
20 -14 4 -18 10 -13 23 4 11 3 15 -5 10 -6 -3 -16 2 -22 11 -11 17 -11 17 -6
1 7 -22 -10 -24 -18 -3 -3 8 -13 15 -23 15 -15 0 -16 2 -3 10 12 8 11 10 -7
10 -25 0 -31 15 -10 24 6 3 1 3 -12 0 -18 -5 -22 -3 -15 7 6 11 3 10 -12 -1
-10 -8 -16 -10 -11 -5 11 13 -22 45 -41 38 -10 -4 -13 -2 -8 5 4 7 1 12 -9 12
-10 0 -13 -5 -9 -12 5 -7 3 -8 -5 -4 -7 5 -10 15 -6 23 4 13 3 14 -9 4 -10 -8
-16 -9 -21 -1 -3 5 -1 10 6 10 7 0 9 3 5 7 -4 5 -15 -1 -23 -12 -13 -16 -15
-17 -10 -2 5 12 1 17 -14 17 -11 0 -18 4 -14 9 3 5 1 12 -5 16 -5 3 -10 1 -10
-4 0 -6 -5 -11 -11 -11 -5 0 -7 5 -3 12 5 7 2 9 -9 5 -11 -4 -14 -2 -10 9 4
11 -6 14 -52 14 -42 0 -54 -3 -49 -12 6 -10 5 -10 -7 -1 -8 6 -41 12 -73 12
-33 0 -62 5 -66 11 -10 17 -97 20 -117 4 -10 -7 -22 -14 -27 -14 -6 0 -1 6 9
14 17 12 11 14 -53 11 -40 -1 -76 -6 -80 -10 -4 -5 1 -5 10 -2 10 3 20 2 23
-4 4 -5 3 -9 -2 -8 -23 4 -43 -2 -38 -12 4 -6 -2 -5 -14 3 -12 7 -21 16 -21
20 0 5 -7 8 -16 8 -8 0 -13 4 -10 9 4 5 -4 7 -16 5 -13 -2 -17 -2 -10 2 6 3 9
11 5 17 -4 6 -7 61 -7 122 -1 60 -5 116 -10 124 -6 9 -5 12 1 8 13 -8 12 131
-1 152 -6 9 -5 12 1 8 13 -8 12 131 -1 152 -6 10 -5 12 2 7 8 -5 12 1 12 14 0
12 -4 19 -9 15 -5 -3 -13 -1 -16 5 -4 6 -1 9 6 8 6 -2 12 9 13 25 1 16 -3 26
-9 23 -6 -2 -12 5 -12 17 -1 11 -8 24 -14 28 -7 4 -14 16 -15 25 -2 10 -10 24
-19 30 -9 7 -13 18 -9 29 5 12 -1 24 -17 37 -20 17 -21 19 -4 13 18 -6 17 -4
-3 18 -18 19 -21 27 -10 33 9 6 6 10 -11 14 -13 3 -25 12 -27 20 -9 49 -15 65
-25 74 -9 8 -10 8 -5 -1 5 -8 1 -13 -9 -13 -9 0 -14 3 -12 8 3 4 1 17 -4 29
-6 16 -14 21 -26 17 -15 -5 -16 -4 -3 6 11 9 12 13 2 17 -6 2 -10 9 -6 14 3 5
-1 9 -8 9 -7 0 -19 9 -26 20 -7 12 -17 18 -22 15 -6 -3 -7 1 -4 9 3 9 1 16 -5
16 -6 0 -8 7 -4 17 4 11 3 14 -5 9 -7 -4 -12 -2 -12 4 0 6 -5 8 -12 4 -9 -5
-8 -2 1 9 12 15 12 17 -3 11 -13 -5 -15 -2 -9 12 6 17 5 17 -10 5 -10 -8 -20
-11 -24 -7 -3 3 -2 6 4 6 21 0 21 26 1 27 -25 2 -29 6 -31 32 -1 21 -2 21 -14
5 -12 -17 -13 -17 -14 2 -1 10 0 26 1 34 1 10 -3 9 -14 -5 -13 -16 -15 -17
-10 -2 5 13 1 17 -15 17 -13 0 -19 5 -15 14 4 10 -2 13 -21 10 -20 -2 -25 1
-21 12 3 9 1 12 -4 9 -6 -3 -10 -1 -10 5 0 6 -4 8 -10 5 -5 -3 -10 1 -10 9 0
14 -25 22 -53 17 -5 -1 -6 3 -2 8 3 6 13 8 23 5 14 -5 14 -4 2 4 -8 6 -17 9
-21 7 -3 -3 -14 4 -24 15 -13 15 -22 17 -36 10 -19 -11 -35 2 -24 20 9 14 -8
12 -24 -2 -11 -11 -11 -9 -1 12 7 14 9 22 5 18 -5 -4 -14 -3 -22 4 -11 9 -12
7 -7 -8 5 -18 5 -18 -10 0 -9 11 -16 16 -16 12 0 -5 -6 -3 -13 3 -8 6 -17 7
-22 3 -4 -4 -6 0 -3 8 7 21 -21 39 -59 40 -26 0 -31 3 -26 17 5 12 3 14 -7 8
-9 -6 -12 -4 -8 7 4 9 0 15 -10 16 -42 4 -125 2 -133 -4 -5 -3 -9 1 -9 8 0 9
-3 9 -10 -2 -6 -10 -10 -11 -10 -2 0 6 -9 12 -20 12 -11 0 -20 5 -20 11 0 6
-10 10 -22 9 -63 -5 -118 1 -118 13 0 7 -9 13 -20 13 -11 0 -20 -4 -20 -8 0
-4 -5 -8 -11 -8 -5 0 -8 3 -5 8 2 4 -15 7 -39 8 -39 0 -43 -2 -32 -15 11 -14
10 -14 -6 -2 -21 17 -147 22 -147 6 0 -7 -3 -6 -8 0 -10 15 -58 12 -54 -4 1
-7 -2 -10 -8 -6 -6 3 -7 11 -4 17 5 7 1 9 -9 5 -10 -3 -17 -2 -17 3 0 6 -5 10
-11 10 -5 0 -7 -5 -3 -12 4 -7 3 -8 -5 -4 -6 4 -9 11 -6 16 3 5 1 11 -5 15 -5
3 -10 1 -10 -5 0 -6 -4 -9 -9 -5 -6 3 -14 -3 -20 -12 -14 -24 -14 -7 0 19 13
24 8 31 -9 12z m778 -108 c0 -2 -7 -7 -16 -10 -8 -3 -12 -2 -9 4 6 10 25 14
25 6z m115 -57 c11 -17 -1 -21 -15 -4 -8 9 -8 15 -2 15 6 0 14 -5 17 -11z
m769 -805 c5 -14 4 -15 -9 -4 -17 14 -19 20 -6 20 5 0 12 -7 15 -16z m25 -62
c-1 -15 -2 -15 -6 1 -2 9 -9 14 -15 11 -7 -4 -8 -2 -4 5 10 15 26 4 25 -17z
m-3056 -557 c-3 -9 -8 -14 -10 -11 -3 3 -2 9 2 15 9 16 15 13 8 -4z m3078 -48
c-10 -9 -11 -8 -5 6 3 10 9 15 12 12 3 -3 0 -11 -7 -18z m3832 -602 c4 -8 3
-16 -1 -19 -4 -3 -9 4 -9 15 -2 23 3 25 10 4z m-8149 -303 c3 -5 -1 -9 -9 -9
-8 0 -12 4 -9 9 3 4 7 8 9 8 2 0 6 -4 9 -8z m5966 -2242 c0 -5 -5 -10 -11 -10
-5 0 -7 5 -4 10 3 6 8 10 11 10 2 0 4 -4 4 -10z m-6520 -26 c0 -8 -19 -13 -24
-6 -3 5 1 9 9 9 8 0 15 -2 15 -3z m6400 -86 c0 -4 -4 -8 -9 -8 -6 0 -12 4 -15
8 -3 5 1 9 9 9 8 0 15 -4 15 -9z m-6403 -364 c-3 -3 -12 -4 -19 -1 -8 3 -5 6
6 6 11 1 17 -2 13 -5z m20 -40 c-3 -3 -12 -4 -19 -1 -8 3 -5 6 6 6 11 1 17 -2
13 -5z m803 -1634 c0 -5 -7 -7 -15 -4 -8 4 -15 8 -15 10 0 2 7 4 15 4 8 0 15
-4 15 -10z m280 -180 c0 -5 -5 -10 -11 -10 -5 0 -7 5 -4 10 3 6 8 10 11 10 2
0 4 -4 4 -10z m1861 -113 c-7 -7 -14 -8 -21 -1 -6 6 -2 10 12 11 16 2 18 -1 9
-10z m1034 -647 c3 -5 1 -10 -4 -10 -6 0 -11 5 -11 10 0 6 2 10 4 10 3 0 8 -4
11 -10z m449 -285 c-4 -8 -11 -15 -16 -15 -6 0 -5 6 2 15 7 8 14 15 16 15 2 0
1 -7 -2 -15z"/>
<path d="M2555 8940 c-3 -5 -1 -10 4 -10 6 0 11 5 11 10 0 6 -2 10 -4 10 -3 0
-8 -4 -11 -10z"/>
<path d="M863 7015 c0 -8 4 -12 9 -9 5 3 6 10 3 15 -9 13 -12 11 -12 -6z"/>
<path d="M9655 6660 c3 -5 8 -10 11 -10 2 0 4 5 4 10 0 6 -5 10 -11 10 -5 0
-7 -4 -4 -10z"/>
<path d="M9310 5189 c0 -5 5 -7 10 -4 6 3 10 8 10 11 0 2 -4 4 -10 4 -5 0 -10
-5 -10 -11z"/>
<path d="M7139 4783 c-13 -16 -12 -17 4 -4 16 13 21 21 13 21 -2 0 -10 -8 -17
-17z"/>
<path d="M6945 4619 c-4 -6 -5 -12 -2 -15 2 -3 7 2 10 11 7 17 1 20 -8 4z"/>
<path d="M260 4539 c0 -5 5 -7 10 -4 6 3 10 8 10 11 0 2 -4 4 -10 4 -5 0 -10
-5 -10 -11z"/>
<path d="M240 4311 c0 -6 4 -13 10 -16 6 -3 7 1 4 9 -7 18 -14 21 -14 7z"/>
<path d="M335 3810 c3 -5 11 -10 16 -10 6 0 7 5 4 10 -3 6 -11 10 -16 10 -6 0
-7 -4 -4 -10z"/>
<path d="M5061 2077 c-13 -21 -12 -21 5 -5 10 10 16 20 13 22 -3 3 -11 -5 -18
-17z"/>
<path d="M2293 1581 c0 -11 5 -18 9 -15 4 3 5 11 1 19 -7 21 -12 19 -10 -4z"/>
</g>
</svg>
